HIERARCHY
ROOT SpineBase
{
  OFFSET 0.000000 0.000000 0.000000
  CHANNELS 6 Xposition Yposition Zposition Zrotation Xrotation Yrotation
  JOINT SpineMid
  {
    OFFSET 0.000000 31.268210 0.000000
    CHANNELS 3 Zrotation Xrotation Yrotation
    JOINT SpineShoulder
    {
      OFFSET -0.083303 23.514668 -0.699886
      CHANNELS 3 Zrotation Xrotation Yrotation
      JOINT Neck
      {
        OFFSET -0.170374 7.804041 -0.514366
        CHANNELS 3 Zrotation Xrotation Yrotation
        JOINT Head
        {
          OFFSET 2.262994 11.766275 3.573447
          CHANNELS 3 Zrotation Xrotation Yrotation
          End Site
          {
            OFFSET 0 0 0
          }
        }
      }
      JOINT ShoulderLeft
      {
        OFFSET -3.006194 -5.941657 -14.409686
        CHANNELS 3 Zrotation Xrotation Yrotation
        JOINT ElbowLeft
        {
          OFFSET -0.174763 -24.144860 -8.257663
          CHANNELS 3 Zrotation Xrotation Yrotation
          JOINT WristLeft
          {
            OFFSET 6.483307 -21.572311 -1.946578
            CHANNELS 3 Zrotation Xrotation Yrotation
            JOINT HandLeft
            {
              OFFSET 0.780383 -7.614339 2.129639
              CHANNELS 3 Zrotation Xrotation Yrotation
              JOINT HandTipLeft
              {
                OFFSET 1.458001 -6.556082 1.183878
                CHANNELS 3 Zrotation Xrotation Yrotation
                End Site
                {
                  OFFSET 0 0 0
                }
              }
              JOINT ThumbLeft
              {
                OFFSET -4.600250 0.292638 3.121560
                CHANNELS 3 Zrotation Xrotation Yrotation
                End Site
                {
                  OFFSET 0 0 0
                }
              }
            }
          }
        }
      }
      JOINT ShoulderRight
      {
        OFFSET 8.351685 -3.481620 11.619779
        CHANNELS 3 Zrotation Xrotation Yrotation
        JOINT ElbowRight
        {
          OFFSET 12.300945 -4.877907 19.406968
          CHANNELS 3 Zrotation Xrotation Yrotation
          JOINT WristRight
          {
            OFFSET 7.350649 16.494678 -5.518446
            CHANNELS 3 Zrotation Xrotation Yrotation
            JOINT HandRight
            {
              OFFSET -3.230813 1.829580 -0.213129
              CHANNELS 3 Zrotation Xrotation Yrotation
              JOINT HandTipRight
              {
                OFFSET -4.476549 5.889327 -1.183246
                CHANNELS 3 Zrotation Xrotation Yrotation
                End Site
                {
                  OFFSET 0 0 0
                }
              }
              JOINT ThumbRight
              {
                OFFSET -3.753640 -2.007899 0.336940
                CHANNELS 3 Zrotation Xrotation Yrotation
                End Site
                {
                  OFFSET 0 0 0
                }
              }
            }
          }
        }
      }
    }
  }
  JOINT HipLeft
  {
    OFFSET -2.224629 1.740549 -11.322548
    CHANNELS 3 Zrotation Xrotation Yrotation
    JOINT KneeLeft
    {
      OFFSET -0.639260 -30.315102 3.310232
      CHANNELS 3 Zrotation Xrotation Yrotation
      JOINT AnkleLeft
      {
        OFFSET -9.304088 -31.084441 0.948742
        CHANNELS 3 Zrotation Xrotation Yrotation
        JOINT FootLeft
        {
          OFFSET 9.465632 -3.744888 -7.114465
          CHANNELS 3 Zrotation Xrotation Yrotation
          End Site
          {
            OFFSET 0 0 0
          }
        }
      }
    }
  }
  JOINT HipRight
  {
    OFFSET 3.247258 -0.702105 4.002706
    CHANNELS 3 Zrotation Xrotation Yrotation
    JOINT KneeRight
    {
      OFFSET 1.928651 -32.280193 9.553572
      CHANNELS 3 Zrotation Xrotation Yrotation
      JOINT AnkleRight
      {
        OFFSET -8.457295 -28.143619 1.238879
        CHANNELS 3 Zrotation Xrotation Yrotation
        JOINT FootRight
        {
          OFFSET 11.646781 -2.752809 -7.504794
          CHANNELS 3 Zrotation Xrotation Yrotation
          End Site
          {
            OFFSET 0 0 0
          }
        }
      }
    }
  }
}
MOTION
Frames: 13
Frame Time: 0.033333
-57.069102 67.916283 345.755001 -0.000000 0.000000 -70.350877 -0.000000 0.000000 70.350877 -0.000000 0.000000 0.000000 -0.000000 0.000000 0.000000 0.000000 0.000000 0.000000 -0.000000 0.000000 0.000000 -0.000000 0.000000 0.000000 -0.000000 0.000000 0.000000 -0.000000 0.000000 0.000000 0.000000 0.000000 0.000000 0.000000 0.000000 0.000000 -0.000000 0.000000 0.000000 -0.000000 0.000000 0.000000 -0.000000 0.000000 0.000000 -0.000000 0.000000 0.000000 0.000000 0.000000 0.000000 0.000000 0.000000 0.000000 -0.000000 0.000000 70.350877 -0.000000 0.000000 0.000000 -0.000000 0.000000 0.000000 0.000000 0.000000 0.000000 -0.000000 0.000000 70.350877 -0.000000 0.000000 0.000000 -0.000000 0.000000 0.000000 0.000000 0.000000 0.000000
-56.018207 67.736416 345.820119 1.273181 -0.023940 -69.715314 -0.463911 -1.185909 69.710779 -0.000000 0.000000 0.000000 -0.000000 0.000000 0.000000 0.000000 0.000000 0.000000 -0.000000 0.000000 0.000000 -0.000000 0.000000 0.000000 -0.000000 0.000000 0.000000 1.454160 -0.103317 0.240219 0.000000 0.000000 0.000000 0.000000 0.000000 0.000000 0.498930 -0.633179 0.378559 -0.494767 0.636438 -0.373054 5.271712 0.044005 0.638347 -4.375987 -4.380571 -3.706952 0.000000 0.000000 0.000000 0.000000 0.000000 0.000000 -1.236269 -2.978095 69.467819 1.949015 -0.094736 0.216509 -0.000000 0.000000 0.000000 0.000000 0.000000 0.000000 -1.111973 -3.044660 69.101583 1.967490 0.057567 0.584284 -4.145058 -2.076172 3.065376 0.000000 0.000000 0.000000
-55.107119 67.619033 345.879282 2.348044 -0.051930 -69.319101 -0.272809 -0.914305 69.360941 -1.396226 0.120615 -0.039665 -0.000000 0.000000 0.000000 0.000000 0.000000 0.000000 -0.000000 0.000000 0.000000 -0.000000 0.000000 0.000000 0.595181 1.200076 0.283911 2.018180 -1.262848 0.218564 0.000000 0.000000 0.000000 0.000000 0.000000 0.000000 0.904516 -1.140601 0.690228 -0.080969 0.553752 -0.148263 9.150708 0.578669 0.503827 -8.418696 -8.342065 -6.931039 0.000000 0.000000 0.000000 0.000000 0.000000 0.000000 -2.310506 -5.544213 68.805037 3.654677 -0.118707 0.405721 -0.000000 0.000000 0.000000 0.000000 0.000000 0.000000 -2.238890 -5.587901 68.126451 3.669812 0.007254 1.084594 -8.409889 -4.501850 6.149084 0.000000 0.000000 0.000000
-54.335835 67.564133 345.932488 3.232315 -0.084040 -69.173153 -0.367794 -1.211180 69.233027 -1.969340 0.172928 -0.055042 -0.000000 0.000000 0.000000 0.000000 0.000000 0.000000 -0.000000 0.000000 0.000000 -0.000000 0.000000 0.000000 0.766692 1.620081 0.370859 2.711853 -1.486824 0.360571 0.000000 0.000000 0.000000 0.000000 0.000000 0.000000 1.214772 -1.523723 0.932384 -0.109273 0.764691 -0.215729 12.717274 0.667954 0.579618 -11.758003 -11.662578 -9.497159 0.000000 0.000000 0.000000 0.000000 0.000000 0.000000 -3.176028 -7.711341 68.402134 5.102187 -0.073785 0.562826 -0.000000 0.000000 0.000000 0.000000 0.000000 0.000000 -3.330418 -7.641256 67.453339 5.096642 -0.158752 1.502269 -12.588395 -7.167312 9.088523 0.000000 0.000000 0.000000
-53.704358 67.571715 345.979738 3.932212 -0.120392 -69.279194 -0.430639 -1.410745 69.355341 -2.460087 0.219897 -0.067741 -0.000000 0.000000 0.000000 0.000000 0.000000 0.000000 -0.000000 0.000000 0.000000 -0.000000 0.000000 0.000000 0.850335 1.911263 0.421192 3.193045 -1.428304 0.506630 0.000000 0.000000 0.000000 0.000000 0.000000 0.000000 1.428244 -1.783821 1.103086 -0.130076 0.931756 -0.277798 15.322640 0.614093 0.538714 -14.075446 -14.188119 -11.269769 0.000000 0.000000 0.000000 0.000000 0.000000 0.000000 -3.795595 -9.491051 68.286784 6.281979 0.037433 0.684608 -0.000000 0.000000 0.000000 0.000000 0.000000 0.000000 -4.347052 -9.220116 67.102749 6.241946 -0.445845 1.838588 -16.457185 -9.890897 11.726826 0.000000 0.000000 0.000000
-53.212686 67.641781 346.021032 4.452280 -0.161166 -69.630612 -0.460883 -1.517374 69.721229 -2.003117 -0.083769 -0.029718 -0.866064 0.344830 -0.046966 0.000000 0.000000 0.000000 -0.866064 0.344830 -0.046966 -0.000000 0.000000 0.000000 0.844125 2.068899 0.434781 3.459981 -1.082318 0.650021 0.000000 0.000000 0.000000 0.000000 0.000000 0.000000 0.676039 -1.578422 1.144781 -0.143746 1.055114 -0.334004 16.842190 0.417904 0.383832 -15.144012 -15.829216 -12.165988 0.000000 0.000000 0.000000 0.000000 0.000000 0.000000 -4.144236 -10.890648 68.473552 7.189053 0.211965 0.769412 -0.000000 0.000000 0.000000 0.000000 0.000000 0.000000 -5.262532 -10.340564 67.085962 7.102955 -0.857156 2.094220 -19.815958 -12.452898 13.946461 0.000000 0.000000 0.000000
-52.724389 67.878712 346.044996 4.928379 -0.224255 -70.563222 -0.496512 -1.502866 70.669517 -2.233756 -0.141821 -0.027691 -1.111953 0.403184 -0.060604 0.000000 0.000000 0.000000 -1.111953 0.403184 -0.060604 -0.000000 0.000000 0.000000 0.519149 1.318286 0.275100 2.952064 0.870975 0.839223 0.000000 0.000000 0.000000 0.000000 0.000000 0.000000 0.366784 -1.406270 1.167399 -0.068348 1.035712 -0.413841 17.245635 -0.588347 -0.661482 -14.266069 -14.436874 -9.921016 0.000000 0.000000 0.000000 0.000000 0.000000 0.000000 -4.106153 -12.347477 69.296758 8.062208 0.638362 0.825067 -0.000000 0.000000 0.000000 0.000000 0.000000 0.000000 -6.607131 -11.250519 67.616537 7.957223 -1.852745 2.355565 -26.331572 -17.913821 17.886873 0.000000 0.000000 0.000000
-52.665154 68.179659 346.055970 4.867580 -0.255947 -71.788120 -0.388321 -1.255685 71.903462 -2.288697 -0.179398 -0.023863 -1.264434 0.464833 -0.068100 0.000000 0.000000 0.000000 -1.264434 0.464833 -0.068100 -0.000000 0.000000 0.000000 0.439912 1.634053 0.285273 3.250542 0.901314 0.955290 0.000000 0.000000 0.000000 0.000000 0.000000 0.000000 -0.094885 -0.926643 1.011172 0.040284 0.943867 -0.484869 16.155227 -1.271158 -1.044132 -12.593010 -13.343225 -8.529581 0.000000 0.000000 0.000000 0.000000 0.000000 0.000000 -3.642610 -12.518298 70.576291 8.140444 0.878896 0.811194 -0.000000 0.000000 0.000000 0.000000 0.000000 0.000000 -6.931908 -10.899781 68.909489 7.758919 -2.530733 2.295625 -29.721083 -20.977752 19.719421 0.000000 0.000000 0.000000
-52.687128 68.476254 346.065236 4.749821 -0.267500 -72.723010 -0.275243 -1.071147 72.843765 -2.267593 -0.190385 -0.019073 -1.377250 0.519473 -0.073236 0.000000 0.000000 0.000000 -1.377250 0.519473 -0.073236 -0.000000 0.000000 0.000000 0.090788 1.288625 0.156927 2.836700 0.509715 0.788467 0.000000 0.000000 0.000000 0.000000 0.000000 0.000000 -0.349240 -0.715976 0.852169 -0.081163 1.006679 -0.515829 14.873408 -1.413808 -0.968517 -11.061979 -13.033014 -8.194955 0.000000 0.000000 0.000000 0.000000 0.000000 0.000000 -2.941788 -12.460026 71.632405 7.996915 1.308925 0.757587 -0.000000 0.000000 0.000000 0.000000 0.000000 0.000000 -7.174630 -10.499961 69.929629 7.535123 -3.095419 2.225363 -29.705151 -20.971976 19.768746 0.000000 0.000000 0.000000
-52.791416 68.445294 346.040946 4.534815 -0.219616 -72.663580 -0.143653 -0.908925 72.784806 -2.212227 -0.206861 -0.016407 -1.411675 0.566445 -0.073747 0.000000 0.000000 0.000000 -1.411675 0.566445 -0.073747 -0.000000 0.000000 0.000000 0.084455 1.840234 0.211819 3.060960 0.086142 0.829478 0.000000 0.000000 0.000000 0.000000 0.000000 0.000000 -0.431779 -0.654562 0.706212 -0.964949 1.232898 -0.768824 14.101674 -0.976510 0.038873 -8.478598 -13.000124 -8.222063 0.000000 0.000000 0.000000 0.000000 0.000000 0.000000 -2.820693 -12.071693 71.606122 7.805749 1.265917 0.742552 -0.000000 0.000000 0.000000 0.000000 0.000000 0.000000 -6.448593 -10.225424 70.023949 7.247754 -2.553220 2.134645 -26.288796 -17.895835 18.054128 0.000000 0.000000 0.000000
-52.899119 68.168042 345.949847 4.283161 -0.093186 -71.781548 0.010758 -0.734725 71.900279 -2.150996 -0.239125 -0.014115 -1.437196 0.578405 -0.074894 0.000000 0.000000 0.000000 -1.437196 0.578405 -0.074894 -0.000000 0.000000 0.000000 0.214841 2.048336 0.267487 3.268352 -0.358619 0.802285 0.000000 0.000000 0.000000 0.000000 0.000000 0.000000 -0.952117 -0.478558 -0.770732 0.511393 0.895332 1.096200 9.208516 0.088390 0.579481 -4.406283 -13.022352 -8.643283 0.000000 0.000000 0.000000 0.000000 0.000000 0.000000 -3.092816 -11.554220 70.690568 7.639677 0.911058 0.757116 0.401983 0.547171 0.606559 0.000000 0.000000 0.000000 -5.037602 -10.157313 69.305218 6.983812 -1.213489 2.056854 -19.645248 -12.323465 14.614833 0.000000 0.000000 0.000000
-52.982532 67.954019 345.916645 4.065468 -0.047883 -70.682026 0.113005 -0.570891 70.799860 -2.096941 -0.254385 -0.011675 -1.466697 0.603895 -0.075809 0.000000 0.000000 0.000000 -1.466697 0.603895 -0.075809 -0.000000 0.000000 0.000000 0.284625 2.468984 0.328450 2.132819 -2.326350 0.231349 0.000000 0.000000 0.000000 0.000000 0.000000 0.000000 -1.369000 0.093233 -0.954975 2.008218 0.352275 1.659965 -1.362219 -0.560580 -2.043403 6.948670 -11.158592 -5.276114 0.000000 0.000000 0.000000 0.000000 0.000000 0.000000 -3.770299 -10.954539 69.514072 7.508751 0.264840 0.799419 0.393055 0.530142 0.581311 0.000000 0.000000 0.000000 -3.942501 -10.094881 68.334163 6.765259 -0.055991 1.996980 -10.825896 -5.905988 8.777907 0.000000 0.000000 0.000000
-53.046825 67.769488 345.890709 3.875456 -0.017950 -69.297443 0.172523 -0.443135 69.413177 -2.049938 -0.261868 -0.010297 -1.471533 0.603866 -0.076104 0.000000 0.000000 0.000000 -1.471533 0.603866 -0.076104 -0.000000 0.000000 0.000000 0.441677 3.290497 0.451624 1.536578 -4.703194 -0.287140 0.000000 0.000000 0.000000 0.000000 0.000000 0.000000 -1.471533 0.603866 -0.076104 5.140739 -0.016189 1.764048 -12.922367 0.665877 -2.217428 15.555742 -9.852180 -4.329889 0.000000 0.000000 0.000000 0.000000 0.000000 0.000000 -4.667663 -10.336734 68.028970 7.445390 -0.531661 0.860672 -0.000000 0.000000 0.000000 0.000000 0.000000 0.000000 -2.938937 -10.117742 67.052158 6.587550 1.102626 1.952866 -4.557673 -2.338372 3.148753 0.000000 0.000000 0.000000
